HIERARCHY
ROOT HipCenter
{
    OFFSET 0.0 0.0 -0.0
    CHANNELS 6 Xposition Yposition Zposition Zrotation Xrotation Yrotation
    JOINT Spine
    {
        OFFSET 0.0 11.131895065307617 0.0
        CHANNELS 3 Zrotation Xrotation Yrotation
        JOINT ShoulderCenter
        {
            OFFSET 0.0 30.930742263793945 0.0
            CHANNELS 3 Zrotation Xrotation Yrotation
            JOINT LeftShoulder
            {
                OFFSET 18.556081771850586 0.0 0.0
                CHANNELS 3 Zrotation Xrotation Yrotation
                JOINT LeftElbow
                {
                    OFFSET 24.320457458496094 0.0 0.0
                    CHANNELS 3 Zrotation Xrotation Yrotation
                    JOINT LeftWrist
                    {
                        OFFSET 27.56960678100586 0.0 0.0
                        CHANNELS 3 Zrotation Xrotation Yrotation
                        JOINT LeftHand
                        {
                            OFFSET 2.7608699798583984 0.0 0.0
                            CHANNELS 3 Zrotation Xrotation Yrotation
                            End Site
                            {
                                OFFSET 1.104348063468933 0.0 0.0
                            }
                        }
                    }
                }
            }
            JOINT RightShoulder
            {
                OFFSET -18.556081771850586 0.0 0.0
                CHANNELS 3 Zrotation Xrotation Yrotation
                JOINT RightElbow
                {
                    OFFSET -24.320457458496094 0.0 0.0
                    CHANNELS 3 Zrotation Xrotation Yrotation
                    JOINT RightWrist
                    {
                        OFFSET -27.56960678100586 0.0 0.0
                        CHANNELS 3 Zrotation Xrotation Yrotation
                        JOINT RightHand
                        {
                            OFFSET -2.7608699798583984 0.0 0.0
                            CHANNELS 3 Zrotation Xrotation Yrotation
                            End Site
                            {
                                OFFSET -1.104348063468933 0.0 0.0
                            }
                        }
                    }
                }
            }
            End Site
            {
                OFFSET 0.0 12.372296333312988 0.0
            }
        }
    }
    JOINT LeftHip
    {
        OFFSET 21.54608917236328 0.0 0.0
        CHANNELS 3 Zrotation Xrotation Yrotation
        JOINT LeftKnee
        {
            OFFSET 0.0 -35.15449523925781 0.0
            CHANNELS 3 Zrotation Xrotation Yrotation
            JOINT LeftAnkle
            {
                OFFSET 0.0 -39.30370330810547 0.0
                CHANNELS 3 Zrotation Xrotation Yrotation
                JOINT LeftFoot
                {
                    OFFSET 0.0 -9.152200698852539 0.0
                    CHANNELS 3 Zrotation Xrotation Yrotation
                    End Site
                    {
                        OFFSET 0.0 0.0 3.6608798503875732
                    }
                }
            }
        }
    }
    JOINT RightHip
    {
        OFFSET -21.54608917236328 0.0 0.0
        CHANNELS 3 Zrotation Xrotation Yrotation
        JOINT RightKnee
        {
            OFFSET 0.0 -35.15449523925781 0.0
            CHANNELS 3 Zrotation Xrotation Yrotation
            JOINT RightAnkle
            {
                OFFSET 0.0 -39.30370330810547 0.0
                CHANNELS 3 Zrotation Xrotation Yrotation
                JOINT RightFoot
                {
                    OFFSET 0.0 -9.152200698852539 0.0
                    CHANNELS 3 Zrotation Xrotation Yrotation
                    End Site
                    {
                        OFFSET 0.0 0.0 3.6608798503875732
                    }
                }
            }
        }
    }
}
MOTION
Frames: 5
Frame Time: 0.03333333333333333
155.20001220703125 -9.600000381469727 22.400001525878906 12.91788917721591 5.073613472837901e-07 -93.73644594067007 -2.3041755600151332 -10.852895146078877 0.3111577328997506 -1.5238088407748128e-07 -4.7046385880956744e-09 0.8357183268085708 103.98279388657681 16.179554197464764 168.34898950564167 -4.311628697061224e-06 -1.7528373973831645e-06 32.153454027910996 179.99999263779006 -70.26426134240148 -142.16077867986107 4.770832022195277e-15 6.620859447075238e-32 1.5902773407317588e-15 -101.33429370364155 -17.51000124647731 -173.04760549411216 1.6095551715728568e-06 3.5051496625942597e-06 -35.340506698844344 -179.9999983426839 -66.24229290878172 146.7438479139014 0.0 0.0 3.1805546814635168e-15 -10.183724324224736 -4.609527760953221 -23.537439879587115 0.07874606271425966 0.8828844277448751 -0.32225495615506355 -161.80896946913288 -34.277604326702566 -156.0652546316692 3.1805546814635164e-15 -3.1805546814635164e-15 8.827812596100317e-32 11.03367116514638 -4.226323801553643 23.34456015889907 0.4757684656962867 -8.575720106800228 -1.7150041250937775 -88.85042707130732 -64.68399118508891 -101.12037050926442 3.1805546814635164e-15 6.3611093629270335e-15 6.3611093629270335e-15
154.70001220703125 -9.700000762939453 22.100000381469727 12.917888682284975 1.6263366488426367e-07 -93.94117953152673 -2.23295437637079 -11.235690292533642 0.36155700185520107 1.0628454235458566e-07 -5.783244176338923e-08 0.8291717332991445 103.70715386980307 14.602280501326437 168.20530155689875 2.8168633521205545e-06 -1.6465486125069134e-06 33.739620766425425 179.9999903639799 -73.15150577769218 -143.4870813463532 -1.5902773407317584e-15 0.0 0.0 -101.07792768309262 -16.75562089768246 -172.1932313134969 -5.175490193920853e-06 2.8674935169714043e-07 -34.19294246726666 179.99998592687953 -66.11288819037291 147.08028928028256 1.2722218725854067e-14 -3.531125038440127e-31 -3.1805546814635168e-15 -9.860900667706845 -3.9773908019444195 -23.705825019895215 0.005827733248762482 0.5969143705625294 -0.218650868495718 -157.93000099425046 -35.778195348009575 -152.08102322988435 3.531125038440127e-31 -6.3611093629270335e-15 6.3611093629270335e-15 11.2171508092815 -3.9901339925119577 23.3042820237851 0.3340923974470762 -8.393558058162364 -1.6361476437926017 -92.47835526557199 -65.15534973250566 -104.74270201082389 3.1805546814635168e-15 6.3611093629270335e-15 3.1805546814635168e-15
154.20001220703125 -9.700000762939453 21.799999237060547 13.033432026541526 -0.516838083961986 -94.2192162997528 -2.862772394294491 -11.416666007230248 0.29503160342896123 2.2443562217263822e-07 1.1688294341773717e-08 0.8205490941360455 103.65444827082644 12.64264551954897 168.22595842871533 2.1191826161639374e-07 -1.0628701816904487e-06 35.90896459662181 -179.99999720383389 -70.35945034969484 -144.46665383904246 -3.578124016646456e-15 -3.975693351829395e-15 -3.1805546814635164e-15 -100.75387716776156 -15.744694408097647 -171.79101571960993 1.0705715010028365e-06 -7.219168410399488e-06 -33.14832296638796 179.99999590996865 -67.84750710198456 149.07542683898617 -4.4139062980501586e-32 3.1805546814635168e-15 1.5902773407317584e-15 -10.239632010894304 -3.4903646977265796 -23.969127615863993 0.24335569876179855 0.438310837543029 -0.16231732261021437 -149.65086347474647 -35.023613744708925 -144.99075035110278 3.1805546814635168e-15 8.827812596100317e-32 3.1805546814635168e-15 10.91805525913772 -4.046883944164633 23.312004644237344 0.45881736266428835 -7.9691156498703 -1.571748046824194 -96.70891539536565 -65.5107217287222 -109.42721115879304 0.0 0.0 6.3611093629270335e-15
153.40000915527344 -9.800000190734863 21.399999618530273 11.915162445062304 -0.5143118252525247 -94.49303455469246 -2.8945108596681974 -10.310888542762005 0.2911943842936419 -9.814501663996813e-08 -2.1814124324240037e-07 0.8277288437146096 103.43758787403692 11.230331721320269 168.74620114622516 -7.848234167826873e-07 1.9891012632452984e-06 37.06058383922836 179.99999973532442 -68.4615591907343 -145.64680404864995 -5.764755360152626e-15 3.1805546814635176e-15 2.3854160110976384e-15 -100.703692286358 -15.329011191833004 -171.16451813401744 -1.4180176491136242e-06 -8.931444577962624e-06 -33.25846578802102 179.99998565385627 -66.3384904689524 147.530457080184 -4.4139062980501586e-32 -3.1805546814635168e-15 -1.5902773407317584e-15 -10.001283608771681 -1.7689589599383022 -23.76753146043516 0.14552929816023816 0.48484607413458963 -0.1786422402112173 -139.71771343321055 -34.20222237869585 -135.17592001522195 -3.1805546814635168e-15 0.0 0.0 11.154967403467737 -2.873388609728715 22.82152258700779 0.29850054973363144 -7.116821914817527 -1.3685197087171157 -104.82695662864535 -65.25760412742041 -117.8731712001955 0.0 0.0 0.0
152.40000915527344 -9.800000190734863 20.900001525878906 11.411043986383785 -0.5152462722069326 -94.94597865598571 -2.6231996415755137 -10.368920803562894 0.3331794390742122 1.0588736203666986e-07 2.0129148837156135e-07 0.5166667745079513 103.30463864111584 10.474739944727629 168.07165383525492 -3.6570322059105313e-06 -2.266503193026832e-06 38.10374988510084 -179.99999395518208 -69.3345616697044 -146.0308943388193 1.1927080055488186e-15 -1.2414111463266072e-32 -1.1927080055488186e-15 -100.5485753859173 -14.656428271603327 -170.5420953531987 -3.411160693231134e-07 3.282508865555548e-06 -33.29600081804538 -179.999984039757 -64.64847328487225 147.29327612900764 6.3611093629270335e-15 3.1805546814635168e-15 -1.7655625192200634e-31 -9.569071773375976 -0.8271981304513064 -24.103753860166997 0.3556702512205494 0.8589907585465739 -0.32271420896309605 -126.76330596903162 -36.92661694922077 -115.76935382057442 0.0 0.0 7.951386703658794e-16 11.315882556814273 -2.7799105444516643 22.810700181267087 0.43783819820903463 -5.231876721137304 -1.0004086492796198 -113.71168641018512 -64.6090371600628 -127.26983311058028 -9.54166404439055e-15 -5.29668755766019e-31 6.3611093629270335e-15
